# xmcd
#
# Track frame offsets:
#	150
#	19194
#	37051
#	56454
#	67281
#	79008
#	95346
#	109273
#	120312
#	139730
#	155392
#	173039
#	187585
#	204775
#	219608
#	240093
#
# Disc length: 3482 seconds
#
# Revision: 1
# Processed by: cddbd v1.5.2PL0 Copyright (c) Steve Scherf et al.
# Submitted via: audiograbber 1.83.01
#
DISCID=cb0d9810
DTITLE=Various Artist - The Winners 2007 [CD1]
DYEAR=2007
DGENRE=Country
TTITLE0=Adam Brand - Life Will Bring You Home
TTITLE1=Beccy Cole - Poster Girl (Wrong Side Of The World)
TTITLE2=Travis Collins - Full Tank
TTITLE3=Tommy Emmanuel - Gameshow Rag, Cannonball Rag
TTITLE4=Anita Ree and Tracy Coster - Itching Feet
TTITLE5=Cat Southern - Last First Kiss
TTITLE6=Lee Kernaghan - Listen To The Radio
TTITLE7=Davidson Brothers - Scrub Turkey
TTITLE8=Dean Perrett - Would Clancy Be Welcome?
TTITLE9=Bill Chambers with Kevin Bennett - Big River
TTITLE10=Nik Phillips - Not In This Life
TTITLE11=Allan Caswell and Drew McAllister - A Little Bit Of Country In Us All
TTITLE12=Graham Rodger - What Country's All About
TTITLE13=Glenn Jones - Down The Bucketts Road
TTITLE14=Matt Scullion featuring Lawrie Minson - Hard Earned $
TTITLE15=Felicity Urquhart - Big Black Cloud
EXTD=
EXTT0=
EXTT1=
EXTT2=
EXTT3=
EXTT4=
EXTT5=
EXTT6=
EXTT7=
EXTT8=
EXTT9=
EXTT10=
EXTT11=
EXTT12=
EXTT13=
EXTT14=
EXTT15=
PLAYORDER=
